<svg width="259" height="259" viewBox="0 0 259 259" fill="none" xmlns="http://www.w3.org/2000/svg">
<g clip-path="url(#clip0_70_127)">
<path d="M210.625 1V33.25L105.812 40.8086L1 33.25V1H81.625L105.812 8.55859L130 1H210.625Z" fill="#FFEE00"/>
<path d="M210.625 1V33.25L105.812 40.8086V8.55859L130 1H210.625Z" fill="#FFCC00"/>
<path d="M1 33.25H210.625V210.625H1V33.25Z" fill="#FFCC00"/>
<path d="M105.812 33.25H210.625V210.625H105.812V33.25Z" fill="#FF9E00"/>
<path d="M130 1V76.208L105.812 65.5L81.625 76.208V1H130Z" fill="#FF3D58"/>
<path d="M130 1V76.208L105.812 65.5V1H130Z" fill="#D20173"/>
<path d="M31.3604 137.622H76.8379V152.739H31.3604V137.622ZM31.3604 167.982H61.6577V183.099H31.3604V167.982Z" fill="#FFEE00"/>
<path d="M193.24 259C229.558 259 259 229.558 259 193.24C259 156.922 229.558 127.48 193.24 127.48C156.922 127.48 127.48 156.922 127.48 193.24C127.48 229.558 156.922 259 193.24 259Z" fill="#FF3D58"/>
<path d="M259 193.24C259 229.557 229.557 259 193.24 259V127.48C229.557 127.48 259 156.924 259 193.24Z" fill="#D20173"/>
<path d="M203.928 193.24L223.56 212.872L212.872 223.565L193.24 203.928L173.608 223.565L162.92 212.872L182.552 193.24L162.92 173.608L173.608 162.915L193.24 182.552L212.872 162.915L223.56 173.608L203.928 193.24Z" fill="#F1F1F1"/>
<path d="M203.928 193.24L223.56 212.872L212.872 223.565L193.24 203.928V182.552L212.872 162.915L223.56 173.608L203.928 193.24Z" fill="#D6D6EA"/>
</g>
<defs>
<clipPath id="clip0_70_127">
<rect width="258" height="258" fill="white" transform="translate(1 1)"/>
</clipPath>
</defs>
</svg>
