<svg width="259" height="259" viewBox="0 0 259 259" fill="none" xmlns="http://www.w3.org/2000/svg">
<path fill-rule="evenodd" clip-rule="evenodd" d="M94.1119 253.754V216.858C94.1119 215.886 93.8852 215.059 93.3964 214.218L56.3845 150.857C52.0257 143.414 54.5704 133.774 61.998 129.43C69.4407 125.087 79.0804 127.616 83.4241 135.059L108.534 178.052C109.748 180.123 112.116 181.096 114.434 180.466C125.279 177.523 134.717 177.523 145.561 180.466C147.889 181.096 150.247 180.123 151.461 178.052L176.571 135.059C180.915 127.616 190.555 125.087 197.997 129.43C205.44 133.774 207.97 143.414 203.626 150.857L166.604 214.218C166.12 215.059 165.888 215.891 165.888 216.858V253.754C165.888 256.642 163.53 258.995 160.648 258.995H99.3525C96.4702 259 94.1119 256.642 94.1119 253.754Z" fill="#0593FC"/>
<path fill-rule="evenodd" clip-rule="evenodd" d="M130.005 164.855C144.074 164.855 155.543 153.371 155.543 139.302C155.543 125.233 144.074 113.764 130.005 113.764C115.936 113.764 104.452 125.233 104.452 139.302C104.452 153.366 115.936 164.855 130.005 164.855Z" fill="#0593FC"/>
<path fill-rule="evenodd" clip-rule="evenodd" d="M130.005 74.0916C150.131 74.0916 166.543 57.6794 166.543 37.5534C166.543 17.4122 150.131 1 130.005 1C109.864 1 93.4517 17.4122 93.4517 37.5534C93.4567 57.6794 109.869 74.0916 130.005 74.0916Z" fill="#70DA40"/>
<path d="M144.336 24.4819C145.964 22.8543 148.609 22.8543 150.222 24.4819C150.609 24.8681 150.916 25.3268 151.125 25.8318C151.335 26.3367 151.443 26.8781 151.443 27.4248C151.443 27.9715 151.335 28.5128 151.125 29.0178C150.916 29.5227 150.609 29.9814 150.222 30.3676L129.98 50.6095C129.594 50.9965 129.135 51.3035 128.63 51.513C128.125 51.7225 127.584 51.8303 127.037 51.8303C126.491 51.8303 125.949 51.7225 125.444 51.513C124.939 51.3035 124.481 50.9965 124.094 50.6095L109.783 36.2985C108.156 34.686 108.156 32.0405 109.783 30.4129C111.411 28.8004 114.041 28.8004 115.669 30.4129L127.037 41.781L144.336 24.4819Z" fill="white"/>
<path fill-rule="evenodd" clip-rule="evenodd" d="M205.984 47.5105L210.439 61.2823C210.812 62.4513 211.855 63.2122 213.079 63.2122L227.546 63.182C228.776 63.182 229.819 63.9379 230.202 65.0969C230.575 66.2659 230.172 67.4803 229.189 68.211L217.463 76.6968C216.465 77.4123 216.062 78.6368 216.45 79.8109L220.95 93.5676C221.338 94.7366 220.935 95.951 219.937 96.6817C218.95 97.3972 217.665 97.3972 216.682 96.6817L204.981 88.1405C203.984 87.4249 202.694 87.4249 201.711 88.1405L190.01 96.6817C189.023 97.3972 187.723 97.3972 186.74 96.6817C185.752 95.951 185.354 94.7417 185.727 93.5676L190.227 79.8109C190.615 78.6419 190.212 77.4123 189.229 76.6968L177.503 68.211C176.506 67.4803 176.103 66.271 176.491 65.0969C176.863 63.9379 177.907 63.182 179.131 63.182L193.603 63.2122C194.833 63.2122 195.876 62.4564 196.259 61.2823L200.703 47.5105C201.091 46.3415 202.119 45.5806 203.344 45.5806C204.568 45.5806 205.611 46.3364 205.984 47.5105ZM59.3021 47.5105L63.7466 61.2823C64.1346 62.4513 65.1727 63.2122 66.4022 63.2122L80.8744 63.182C82.1039 63.182 83.147 63.9379 83.53 65.0969C83.9028 66.2659 83.4997 67.4803 82.5171 68.211L70.7912 76.6968C69.7935 77.4123 69.3904 78.6368 69.7784 79.8109L74.2782 93.5676C74.6511 94.7366 74.2631 95.951 73.2654 96.6817C72.2777 97.3972 70.9928 97.3972 69.995 96.6817L58.3095 88.1405C57.3117 87.4249 56.0217 87.4249 55.024 88.1405L43.3384 96.6817C42.3407 97.3972 41.0507 97.3972 40.068 96.6817C39.0703 95.951 38.6823 94.7417 39.0552 93.5676L43.5551 79.8109C43.9431 78.6419 43.54 77.4123 42.5422 76.6968L30.8163 68.211C29.8287 67.4803 29.4306 66.271 29.8035 65.0969C30.1915 63.9379 31.2295 63.182 32.4591 63.182L46.9262 63.2122C48.1557 63.2122 49.1988 62.4564 49.5818 61.2823L54.0262 47.5105C54.3991 46.3415 55.4422 45.5806 56.6667 45.5806C57.8912 45.5806 58.9293 46.3364 59.3021 47.5105Z" fill="#FFD400"/>
<path fill-rule="evenodd" clip-rule="evenodd" d="M69.5314 63.1922L80.8743 63.1771H81.0759L69.7178 63.2074C69.6422 63.2074 69.5868 63.2074 69.5314 63.1922ZM73.2855 96.6617L73.2552 96.6768C72.2676 97.3924 70.9826 97.3924 69.9849 96.6768L58.3144 88.1507L58.3446 88.1356C59.3323 87.4201 60.6173 87.4201 61.615 88.1356L73.2855 96.6617ZM43.3484 96.6617L43.3333 96.6768C42.3355 97.3924 41.0455 97.3924 40.0629 96.6768C39.0652 95.9462 38.6772 94.7368 39.0501 93.5627L43.55 79.806C43.938 78.637 43.5348 77.4074 42.5371 76.6919L30.8112 68.2061C29.8235 67.4754 29.4255 66.2661 29.7983 65.092C30.1864 63.933 31.2244 63.1771 32.4539 63.1771H35.5681C34.4393 63.2477 33.4819 63.9935 33.1241 65.092C32.7361 66.261 33.1392 67.4754 34.1219 68.2061L45.8629 76.6919C46.8505 77.4074 47.2486 78.6319 46.8606 79.806L42.3607 93.5627C41.9878 94.7166 42.3758 95.931 43.3484 96.6617ZM47.1176 63.1922C48.2615 63.1217 49.2189 62.391 49.5767 61.2774L54.0211 47.5056C54.394 46.3366 55.4371 45.5757 56.6616 45.5757C57.2764 45.5757 57.8609 45.7621 58.3194 46.1199C57.8609 46.4474 57.5182 46.9211 57.3318 47.5056L52.8873 61.2774C52.4993 62.4465 51.4613 63.2074 50.2317 63.2074L47.1176 63.1922ZM216.208 63.1922L227.551 63.1771H227.753L216.395 63.2074C216.339 63.2074 216.269 63.2074 216.208 63.1922ZM219.968 96.6617L219.937 96.6768C218.95 97.3924 217.665 97.3924 216.682 96.6768L204.996 88.1507L205.027 88.1356C206.014 87.4201 207.314 87.4201 208.297 88.1356L219.968 96.6617ZM190.03 96.6617L190.015 96.6768C189.028 97.3924 187.728 97.3924 186.745 96.6768C185.757 95.9462 185.359 94.7368 185.732 93.5627L190.232 79.806C190.62 78.637 190.217 77.4074 189.234 76.6919L177.508 68.2061C176.511 67.4754 176.108 66.2661 176.496 65.092C176.868 63.933 177.912 63.1771 179.136 63.1771H182.265C181.121 63.2477 180.164 63.9935 179.806 65.092C179.418 66.261 179.821 67.4754 180.819 68.2061L192.545 76.6919C193.533 77.4074 193.931 78.6319 193.558 79.806L189.058 93.5627C188.67 94.7166 189.058 95.931 190.03 96.6617ZM193.8 63.1922C194.944 63.1217 195.901 62.391 196.259 61.2774L200.703 47.5056C201.091 46.3366 202.119 45.5757 203.344 45.5757C203.974 45.5757 204.543 45.7621 205.002 46.1199C204.558 46.4474 204.2 46.9211 204.014 47.5056L199.569 61.2774C199.197 62.4465 198.153 63.2074 196.929 63.2074L193.8 63.1922Z" fill="#E6BF00"/>
<path fill-rule="evenodd" clip-rule="evenodd" d="M130.005 1C130.917 1 131.834 1.03023 132.731 1.10078C113.825 2.50164 98.909 18.284 98.909 37.5534C98.909 56.8076 113.82 72.6051 132.731 73.9908C131.829 74.0614 130.917 74.0916 130.005 74.0916C109.808 74.0916 93.4517 57.7348 93.4517 37.5534C93.4567 17.3568 109.808 1 130.005 1Z" fill="#65C43A"/>
<path fill-rule="evenodd" clip-rule="evenodd" d="M94.1119 253.755V216.859C94.1119 215.886 93.8852 215.06 93.3964 214.218L56.3845 150.857C52.0257 143.414 54.5704 133.774 61.998 129.431C65.3137 127.491 69.0678 126.931 72.5951 127.546C70.8214 127.859 69.093 128.473 67.4653 129.431C60.0227 133.774 57.493 143.414 61.8367 150.857L98.8486 214.218C99.3324 215.06 99.5642 215.891 99.5642 216.859V253.755C99.5642 256.642 101.922 258.995 104.805 258.995H99.3475C96.4702 259 94.1119 256.642 94.1119 253.755ZM116.052 180.038C121.837 178.622 127.249 178.053 132.736 178.34C128.564 178.557 124.351 179.252 119.897 180.466C118.551 180.824 117.196 180.653 116.052 180.038ZM149.406 180.038C150.232 179.595 150.947 178.924 151.461 178.053L176.571 135.059C179.973 129.244 186.584 126.433 192.867 127.546C188.483 128.317 184.442 130.932 182.028 135.059L156.934 178.053C155.719 180.124 153.351 181.096 151.033 180.466C150.489 180.31 149.95 180.179 149.406 180.038ZM130.005 113.759C130.917 113.759 131.834 113.815 132.731 113.9C119.902 115.271 109.919 126.115 109.919 139.297C109.919 152.479 119.902 163.339 132.731 164.709C131.829 164.795 130.917 164.85 130.005 164.85C115.891 164.85 104.452 153.407 104.452 139.297C104.452 125.203 115.896 113.759 130.005 113.759Z" fill="#0584E3"/>
</svg>
