<svg width="259" height="259" viewBox="0 0 259 259" fill="none" xmlns="http://www.w3.org/2000/svg">
<path d="M187.143 39.5438V241.635C187.143 243.278 186.916 244.865 186.488 246.372C184.427 253.659 177.725 259 169.778 259H48.9516C39.3623 259 31.592 251.225 31.592 241.635V39.5438C31.592 29.9545 39.3623 22.1792 48.9516 22.1792H169.778C179.368 22.1792 187.143 29.9545 187.143 39.5438Z" fill="#A1412B"/>
<path d="M67.8835 199.9V230.565C67.8835 239.297 74.9584 246.372 83.6911 246.372H186.488C186.916 244.865 187.143 243.278 187.143 241.635V199.9H67.8835Z" fill="#7F392C"/>
<path d="M169.779 22.1812H48.9522C39.3623 22.1812 31.5901 29.9534 31.5901 39.5432V241.636C31.5901 251.226 39.3623 258.998 48.9522 258.998H169.779C179.369 258.998 187.141 251.226 187.141 241.636V39.5432C187.141 29.9534 179.369 22.1812 169.779 22.1812ZM168.699 240.556H50.032V40.6231H168.699V240.556Z" fill="#DB765A"/>
<path d="M187.143 199.902V241.635C187.143 243.278 186.916 244.865 186.488 246.372H83.6909C78.7526 246.372 74.3384 244.11 71.4409 240.557H168.7V199.902H187.143Z" fill="#B55434"/>
<path d="M48.9522 22.1812C39.3633 22.1812 31.5901 29.9544 31.5901 39.5432V149.974C31.5901 155.066 35.7186 159.195 40.8111 159.195C45.9035 159.195 50.032 155.066 50.032 149.974V40.6231H71.0943C76.1868 40.6231 80.3153 36.4946 80.3153 31.4021C80.3153 26.3097 76.1868 22.1812 71.0943 22.1812H48.9522Z" fill="#F2886B"/>
<path d="M50.032 113.444V71.7962C50.032 66.7037 45.9035 62.5752 40.8111 62.5752C35.7186 62.5752 31.5901 66.7037 31.5901 71.7962V113.444C31.5901 118.536 35.7186 122.665 40.8111 122.665C45.9035 122.665 50.032 118.536 50.032 113.444Z" fill="#F79A7C"/>
<path d="M146.636 125.321V228.133H83.6903C74.9602 228.133 67.8828 221.056 67.8828 212.326V130.59C67.8828 127.68 70.2421 125.321 73.1522 125.321H146.636Z" fill="#D8D4C9"/>
<path d="M146.634 125.319V228.136H83.6911C77.7047 228.136 72.4943 224.81 69.8135 219.902C83.1468 202.129 91.043 180.048 91.043 156.123C91.043 145.41 89.4608 135.069 86.5129 125.319H146.634Z" fill="#B5B1A4"/>
<path d="M99.6286 212.326V6.26935C99.6286 3.35929 101.988 1 104.898 1H223.141C226.051 1 228.41 3.35929 228.41 6.26935V212.326C228.41 221.056 221.333 228.134 212.602 228.134H83.8215C92.5517 228.134 99.6286 221.056 99.6286 212.326Z" fill="#F1EEE0"/>
<path d="M108.382 128.068C103.548 128.068 99.6294 124.15 99.6294 119.316V30.934C99.6294 26.1 103.548 22.1812 108.382 22.1812C113.216 22.1812 117.135 26.1 117.135 30.934V119.315C117.136 124.15 113.217 128.068 108.382 128.068Z" fill="#F9F8F2"/>
<path d="M228.408 6.27086V212.328C228.408 221.056 221.333 228.136 212.6 228.136H162.361C193.991 174.344 212.132 111.673 212.132 44.7592C212.132 29.9494 211.245 15.3462 209.516 1H223.142C226.05 1 228.408 3.35828 228.408 6.27086Z" fill="#E8E4D8"/>
<path d="M99.6294 174.737H228.408V185.656H99.6294V174.737Z" fill="#FFC751"/>
<path d="M166.233 174.737H119.078C116.063 174.737 113.618 177.181 113.618 180.197C113.618 183.212 116.063 185.656 119.078 185.656H166.233C169.248 185.656 171.693 183.212 171.693 180.197C171.693 177.181 169.248 174.737 166.233 174.737Z" fill="#FFE059"/>
<path d="M228.408 6.27086V41.8618H99.6294V6.27086C99.6294 3.35828 101.988 1 104.9 1H223.142C226.049 1 228.408 3.35828 228.408 6.27086Z" fill="#FFC751"/>
<path d="M228.408 6.27086V41.8618H212.122C212.011 28.0446 211.134 14.4089 209.516 1H223.142C226.05 1 228.408 3.35828 228.408 6.27086Z" fill="#FFAF40"/>
<path d="M127.485 67.6769H118.059C117.466 67.6769 116.879 67.5602 116.331 67.3333C115.784 67.1064 115.286 66.7739 114.867 66.3547C114.447 65.9355 114.115 65.4378 113.888 64.8901C113.661 64.3423 113.544 63.7553 113.544 63.1624C113.544 61.9651 114.02 60.8168 114.867 59.9702C115.713 59.1236 116.862 58.6479 118.059 58.6479H127.485C128.682 58.6479 129.831 59.1236 130.677 59.9702C131.524 60.8168 131.999 61.9651 131.999 63.1624C131.999 64.3598 131.524 65.508 130.677 66.3547C129.831 67.2013 128.682 67.6769 127.485 67.6769ZM155.2 82.0781H118.059C116.862 82.0781 115.713 81.6024 114.867 80.7558C114.02 79.9092 113.544 78.7609 113.544 77.5636C113.544 76.3663 114.02 75.218 114.867 74.3713C115.713 73.5247 116.862 73.0491 118.059 73.0491H155.2C156.397 73.0491 157.545 73.5247 158.392 74.3713C159.239 75.218 159.714 76.3663 159.714 77.5636C159.714 78.7609 159.239 79.9092 158.392 80.7558C157.545 81.6024 156.397 82.0781 155.2 82.0781Z" fill="#8F8B81"/>
<path d="M213.566 71.2219C213.709 71.1283 213.825 71.0008 213.906 70.8509C213.987 70.701 214.029 70.5333 214.029 70.363C214.029 70.1926 213.987 70.025 213.906 69.875C213.825 69.7251 213.709 69.5976 213.566 69.5041C211.972 68.4539 210.458 67.2314 209.053 65.8366C207.647 64.4418 206.416 62.9397 205.358 61.3574C204.947 60.7441 204.037 60.7441 203.627 61.3574C202.568 62.9397 201.337 64.4418 199.931 65.8366C198.526 67.2314 197.012 68.4534 195.418 69.5041C195.276 69.5976 195.159 69.7251 195.078 69.875C194.997 70.025 194.955 70.1926 194.955 70.363C194.955 70.5333 194.997 70.701 195.078 70.8509C195.159 71.0008 195.276 71.1283 195.418 71.2219C197.012 72.272 198.526 73.4945 199.931 74.8893C201.337 76.2841 202.568 77.7863 203.627 79.3685C204.037 79.9818 204.947 79.9818 205.358 79.3685C206.416 77.7863 207.647 76.2841 209.053 74.8893C210.458 73.4945 211.972 72.272 213.566 71.2219Z" fill="#FFAF40"/>
<path d="M127.485 105.823H118.059C116.862 105.823 115.713 105.347 114.867 104.501C114.02 103.654 113.544 102.506 113.544 101.308C113.544 100.111 114.02 98.9628 114.867 98.1162C115.713 97.2696 116.862 96.7939 118.059 96.7939H127.485C128.682 96.7939 129.831 97.2696 130.677 98.1162C131.524 98.9628 131.999 100.111 131.999 101.308C131.999 102.506 131.524 103.654 130.677 104.501C129.831 105.347 128.682 105.823 127.485 105.823ZM155.2 120.224H118.059C116.862 120.224 115.713 119.748 114.867 118.902C114.02 118.055 113.544 116.907 113.544 115.71C113.544 114.512 114.02 113.364 114.867 112.517C115.713 111.671 116.862 111.195 118.059 111.195H155.2C156.397 111.195 157.545 111.671 158.392 112.517C159.239 113.364 159.714 114.512 159.714 115.71C159.714 116.907 159.239 118.055 158.392 118.902C157.545 119.748 156.397 120.224 155.2 120.224Z" fill="#8F8B81"/>
<path d="M213.566 109.368C213.709 109.274 213.825 109.147 213.906 108.997C213.987 108.847 214.029 108.679 214.029 108.509C214.029 108.339 213.987 108.171 213.906 108.021C213.825 107.871 213.709 107.744 213.566 107.65C211.972 106.6 210.458 105.377 209.053 103.983C207.647 102.588 206.416 101.086 205.358 99.5034C204.947 98.8901 204.037 98.8901 203.627 99.5034C202.568 101.086 201.337 102.588 199.931 103.983C198.526 105.377 197.012 106.599 195.418 107.65C195.276 107.744 195.159 107.871 195.078 108.021C194.997 108.171 194.955 108.339 194.955 108.509C194.955 108.679 194.997 108.847 195.078 108.997C195.159 109.147 195.276 109.274 195.418 109.368C197.012 110.418 198.526 111.64 199.931 113.035C201.337 114.43 202.568 115.932 203.627 117.515C204.037 118.128 204.947 118.128 205.358 117.515C206.437 115.902 207.675 114.401 209.053 113.035C210.431 111.666 211.943 110.437 213.566 109.368Z" fill="#FFAF40"/>
<path d="M127.485 143.969H118.059C116.862 143.969 115.713 143.494 114.867 142.647C114.02 141.801 113.544 140.652 113.544 139.455C113.544 138.258 114.02 137.109 114.867 136.263C115.713 135.416 116.862 134.94 118.059 134.94H127.485C128.682 134.94 129.831 135.416 130.677 136.263C131.524 137.109 131.999 138.258 131.999 139.455C131.999 140.652 131.524 141.801 130.677 142.647C129.831 143.494 128.682 143.969 127.485 143.969ZM155.2 158.371H118.059C116.862 158.371 115.713 157.895 114.867 157.048C114.02 156.202 113.544 155.053 113.544 153.856C113.544 152.659 114.02 151.51 114.867 150.664C115.713 149.817 116.862 149.342 118.059 149.342H155.2C156.397 149.342 157.545 149.817 158.392 150.664C159.239 151.51 159.714 152.659 159.714 153.856C159.714 155.053 159.239 156.202 158.392 157.048C157.545 157.895 156.397 158.371 155.2 158.371Z" fill="#8F8B81"/>
<path d="M131.582 149.341H123.444C122.247 149.341 121.099 149.817 120.252 150.664C119.405 151.51 118.93 152.658 118.93 153.856C118.93 155.053 119.405 156.201 120.252 157.048C121.099 157.895 122.247 158.37 123.444 158.37H131.582C132.779 158.37 133.927 157.895 134.774 157.048C135.621 156.201 136.096 155.053 136.096 153.856C136.096 153.263 135.98 152.676 135.753 152.128C135.526 151.58 135.194 151.083 134.774 150.663C134.355 150.244 133.858 149.912 133.31 149.685C132.762 149.458 132.175 149.341 131.582 149.341ZM131.582 111.195H123.444C122.247 111.195 121.099 111.671 120.252 112.517C119.405 113.364 118.93 114.512 118.93 115.71C118.93 116.907 119.405 118.055 120.252 118.902C121.099 119.748 122.247 120.224 123.444 120.224H131.582C132.779 120.224 133.927 119.748 134.774 118.902C135.621 118.055 136.096 116.907 136.096 115.71C136.096 115.117 135.98 114.53 135.753 113.982C135.526 113.434 135.194 112.936 134.774 112.517C134.355 112.098 133.858 111.765 133.31 111.539C132.762 111.312 132.175 111.195 131.582 111.195ZM131.582 73.0488H123.444C122.247 73.0488 121.099 73.5245 120.252 74.3711C119.405 75.2177 118.93 76.366 118.93 77.5633C118.93 78.7606 119.405 79.9089 120.252 80.7556C121.099 81.6022 122.247 82.0778 123.444 82.0778H131.582C132.779 82.0778 133.927 81.6022 134.774 80.7556C135.621 79.9089 136.096 78.7606 136.096 77.5633C136.096 76.9705 135.98 76.3834 135.753 75.8357C135.526 75.2879 135.194 74.7902 134.774 74.371C134.355 73.9517 133.858 73.6192 133.31 73.3923C132.762 73.1655 132.175 73.0488 131.582 73.0488Z" fill="#B5B1A4"/>
<path d="M177.876 211.904H118.059C116.862 211.904 115.713 211.428 114.867 210.582C114.02 209.735 113.544 208.587 113.544 207.39C113.544 206.192 114.02 205.044 114.867 204.197C115.713 203.351 116.862 202.875 118.059 202.875H177.876C179.073 202.875 180.221 203.351 181.068 204.197C181.914 205.044 182.39 206.192 182.39 207.39C182.39 208.587 181.914 209.735 181.068 210.582C180.221 211.428 179.073 211.904 177.876 211.904Z" fill="#8F8B81"/>
<path d="M142.879 207.39C142.879 208.587 143.355 209.735 144.201 210.582C145.048 211.428 146.196 211.904 147.393 211.904H161.741C162.938 211.904 164.086 211.428 164.933 210.582C165.779 209.735 166.255 208.587 166.255 207.39C166.255 206.192 165.779 205.044 164.933 204.197C164.086 203.351 162.938 202.875 161.741 202.875H147.393C146.196 202.875 145.048 203.351 144.201 204.197C143.355 205.044 142.879 206.192 142.879 207.39Z" fill="#B5B1A4"/>
<path d="M213.566 147.514C213.709 147.421 213.825 147.293 213.906 147.143C213.987 146.993 214.029 146.826 214.029 146.655C214.029 146.485 213.987 146.317 213.906 146.168C213.825 146.018 213.709 145.89 213.566 145.797C211.972 144.746 210.458 143.524 209.053 142.129C207.647 140.734 206.416 139.232 205.358 137.65C204.947 137.037 204.037 137.037 203.627 137.65C202.568 139.232 201.337 140.734 199.931 142.129C198.526 143.524 197.012 144.746 195.418 145.797C195.276 145.89 195.159 146.018 195.078 146.168C194.997 146.317 194.955 146.485 194.955 146.655C194.955 146.826 194.997 146.993 195.078 147.143C195.159 147.293 195.276 147.421 195.418 147.514C197.012 148.564 198.526 149.787 199.931 151.182C201.337 152.577 202.568 154.079 203.627 155.661C204.037 156.274 204.947 156.274 205.358 155.661C206.416 154.079 207.647 152.577 209.053 151.182C210.458 149.787 211.972 148.564 213.566 147.514ZM213.566 207.849C213.709 207.755 213.825 207.627 213.906 207.478C213.987 207.328 214.029 207.16 214.029 206.99C214.029 206.819 213.987 206.652 213.906 206.502C213.825 206.352 213.709 206.224 213.566 206.131C211.972 205.081 210.458 203.858 209.053 202.463C207.647 201.069 206.416 199.566 205.358 197.984C204.947 197.371 204.037 197.371 203.627 197.984C202.568 199.566 201.337 201.069 199.931 202.463C198.526 203.858 197.012 205.08 195.418 206.131C195.276 206.224 195.159 206.352 195.078 206.502C194.997 206.652 194.955 206.819 194.955 206.99C194.955 207.16 194.997 207.328 195.078 207.478C195.159 207.627 195.276 207.755 195.418 207.849C197.012 208.899 198.526 210.121 199.931 211.516C201.337 212.911 202.568 214.413 203.627 215.995C204.037 216.608 204.947 216.608 205.358 215.995C206.416 214.413 207.647 212.911 209.053 211.516C210.458 210.121 211.972 208.899 213.566 207.849Z" fill="#229BFF"/>
<path d="M189.989 30.4972H138.049C135.266 30.4972 133.01 28.2412 133.01 25.4582V15.9736C133.01 13.1906 135.266 10.9346 138.049 10.9346H189.989C192.773 10.9346 195.029 13.1906 195.029 15.9736V25.4582C195.029 28.2412 192.773 30.4972 189.989 30.4972Z" fill="#F1EEE0"/>
<path d="M228.408 174.737V185.656H183.706C185.238 182.049 186.705 178.405 188.115 174.737H228.408Z" fill="#FFAF40"/>
<path d="M117.135 30.9321V41.8618H99.6294V30.9321C99.6294 26.0996 103.55 22.1792 108.382 22.1792C110.801 22.1792 112.988 23.1618 114.57 24.7441C116.152 26.3263 117.135 28.5133 117.135 30.9321Z" fill="#FFE059"/>
</svg>
