<svg width="259" height="259" viewBox="0 0 259 259" fill="none" xmlns="http://www.w3.org/2000/svg">
<g clip-path="url(#clip0_69_28)">
<path fill-rule="evenodd" clip-rule="evenodd" d="M103.22 27.334L204.139 66.5735V183.105L103.22 222.345L2.30151 183.105V66.5735L103.22 27.334Z" fill="#D47637"/>
<path fill-rule="evenodd" clip-rule="evenodd" d="M103.22 80.8865L204.139 66.5737V183.106L103.22 222.346V80.8865Z" fill="#A35623"/>
<path fill-rule="evenodd" clip-rule="evenodd" d="M103.219 27.335L204.139 66.574L103.219 105.815L2.30029 66.574L103.219 27.335Z" fill="#E2945F"/>
<path fill-rule="evenodd" clip-rule="evenodd" d="M35.7078 79.5638L40.8256 77.5737L74.8426 90.8672L69.8118 92.8234V120.844C69.8118 121.991 68.4738 122.608 67.6017 121.865L52.0197 108.595L37.4464 113.127C37.2457 113.19 37.0329 113.205 36.8253 113.17C36.6177 113.136 36.4211 113.053 36.2516 112.928C36.0821 112.803 35.9445 112.64 35.8499 112.452C35.7553 112.264 35.7065 112.057 35.7073 111.846L35.7078 79.5638Z" fill="#EFF4F7"/>
<path fill-rule="evenodd" clip-rule="evenodd" d="M136.625 40.3228L170.73 53.5839C137.091 66.6644 103.451 79.7459 69.8118 92.8239L35.7078 79.5638L136.625 40.3228Z" fill="#E2E3E3"/>
<path fill-rule="evenodd" clip-rule="evenodd" d="M204.14 231.666C230.886 231.666 252.7 209.852 252.7 183.106C252.7 156.361 230.886 134.547 204.14 134.547C177.394 134.547 155.581 156.361 155.581 183.106C155.581 209.852 177.394 231.666 204.14 231.666Z" fill="#28BD41"/>
<path fill-rule="evenodd" clip-rule="evenodd" d="M222.526 160.961C225.276 158.212 229.733 158.212 232.481 160.961C235.23 163.711 235.23 168.167 232.481 170.916L198.146 205.251C195.033 208.364 189.89 207.875 187.391 204.297L172.946 186.117C170.531 183.08 171.035 178.66 174.072 176.245C177.111 173.831 181.53 174.335 183.945 177.372L193.761 189.726L222.526 160.961Z" fill="#EFF4F7"/>
</g>
<defs>
<clipPath id="clip0_69_28">
<rect width="259" height="259" fill="white"/>
</clipPath>
</defs>
</svg>
