<svg width="259" height="259" viewBox="0 0 259 259" fill="none" xmlns="http://www.w3.org/2000/svg">
<g clip-path="url(#clip0_68_11)">
<path d="M191.203 155.365V193.759C191.203 199.256 189.019 204.527 185.133 208.414C181.246 212.3 175.975 214.484 170.478 214.484H33.8657C28.3691 214.484 23.0978 212.3 19.2111 208.414C15.3245 204.527 13.1409 199.256 13.1406 193.759V188.832C13.1401 131.063 25.5091 73.9631 49.4158 21.3726L53.6094 12.1406H151.468C155.907 12.1406 160.223 13.6005 163.751 16.2953C167.278 18.9902 169.822 22.7704 170.989 27.0534L176.943 48.8862C186.407 83.5875 191.203 119.396 191.203 155.365Z" fill="#EEDC9A"/>
<path d="M176.943 48.8862L170.989 27.0534C169.971 23.3184 167.903 19.9539 165.03 17.359C162.157 14.764 158.6 13.0476 154.781 12.4133V12.1406H118.359V44.5156H136.883C119.289 90.5968 110.268 139.507 110.266 188.832V193.759C110.266 199.256 112.449 204.527 116.336 208.414C120.223 212.301 125.494 214.484 130.991 214.484H170.478C175.975 214.484 181.246 212.301 185.133 208.414C189.02 204.527 191.203 199.256 191.203 193.759V155.365C191.203 119.396 186.407 83.5875 176.943 48.8862Z" fill="#E88604"/>
<path d="M130.5 48.5625C130.5 51.7824 131.779 54.8704 134.056 57.1472C136.333 59.424 139.421 60.7031 142.641 60.7031H33.375C30.1551 60.7031 27.0671 59.424 24.7903 57.1472C22.5135 54.8704 21.2344 51.7824 21.2344 48.5625V32.375C21.2344 27.0085 23.3662 21.8618 27.1609 18.0671C30.9556 14.2725 36.1023 12.1406 41.4688 12.1406H150.734C145.368 12.1406 140.221 14.2725 136.427 18.0671C132.632 21.8618 130.5 27.0085 130.5 32.375V48.5625Z" fill="#ECE9C0"/>
<path d="M130.5 36.4219H154.781V48.5625C154.781 51.7824 153.502 54.8704 151.225 57.1472C148.949 59.424 145.861 60.7031 142.641 60.7031C139.421 60.7031 136.333 59.424 134.056 57.1472C131.779 54.8704 130.5 51.7824 130.5 48.5625V36.4219Z" fill="#EEBE33"/>
<path d="M53.6094 141.641C53.6094 149.664 55.1016 157.618 58.0098 165.096L71.9038 200.824C74.8593 208.424 80.0418 214.954 86.772 219.558C93.5023 224.162 101.466 226.625 109.621 226.625H191.848C200.002 226.625 207.966 224.162 214.697 219.558C221.427 214.954 226.609 208.424 229.565 200.824L243.459 165.096C246.367 157.618 247.859 149.664 247.859 141.641H53.6094Z" fill="#379EC3"/>
<path d="M247.859 141.641C247.859 148.93 238.415 155.577 222.895 160.6C205.119 166.352 179.376 169.969 150.734 169.969C122.093 169.969 96.3494 166.352 78.5735 160.6C63.0538 155.577 53.6094 148.93 53.6094 141.641C53.6094 125.994 97.093 113.312 150.734 113.312C204.376 113.312 247.859 125.994 247.859 141.641Z" fill="#8ACCE7"/>
<path d="M223.578 157.828C223.57 158.793 223.336 159.742 222.895 160.6C205.119 166.352 179.376 169.969 150.734 169.969C122.093 169.969 96.3494 166.352 78.5735 160.6C78.1326 159.742 77.8987 158.793 77.8906 157.828C77.8906 146.654 110.503 137.594 150.734 137.594C190.965 137.594 223.578 146.654 223.578 157.828Z" fill="#EEDC9A"/>
<path d="M204.641 100.77L203.319 88.8756L200.802 89.1554L200.621 87.5265L198.104 87.8063L197.924 86.1774L191.561 86.8846L190.326 81.3252C178.351 83.9618 167.119 89.2471 157.455 96.7929C147.79 104.339 139.938 113.953 134.476 124.931L122.834 148.215L130.073 151.835L141.715 128.551C146.242 119.452 152.595 111.384 160.377 104.849C168.159 98.3134 177.204 93.451 186.948 90.5647C173.39 100.12 160.979 114.823 152.308 131.777L140.392 154.918L147.587 158.623L159.509 135.473C167.817 119.226 179.713 105.262 192.589 96.4989C189.906 101.573 186.903 107.178 183.746 113.07C179.343 121.287 174.808 129.805 170.141 138.624L160.965 155.933L168.116 159.724L177.298 142.404C181.939 133.579 186.467 125.075 190.88 116.892C192.977 112.98 195.003 109.198 196.917 105.605C197.74 119.47 194.641 133.287 187.974 145.472L182.291 155.89L189.396 159.766L195.079 149.347C203.193 134.526 206.532 117.561 204.641 100.77Z" fill="#C4D4E0"/>
<path d="M185.265 82.9283L217.476 30.2198C219.099 27.5641 221.705 25.6572 224.728 24.9145C227.75 24.1719 230.944 24.6537 233.613 26.2549C234.948 27.0561 236.112 28.1139 237.037 29.3672C237.962 30.6205 238.629 32.0444 239.001 33.5569C239.372 35.0694 239.441 36.6406 239.202 38.1796C238.963 39.7187 238.422 41.1954 237.61 42.5243L205.399 95.2328C203.776 97.8886 201.17 99.7955 198.147 100.538C195.125 101.281 191.931 100.799 189.262 99.1978C187.927 98.3965 186.763 97.3387 185.838 96.0855C184.913 94.8322 184.246 93.4082 183.874 91.8957C183.503 90.3832 183.434 88.8121 183.673 87.273C183.912 85.7339 184.453 84.2573 185.265 82.9283Z" fill="#A6B2BC"/>
<path d="M166.922 214.484L199.347 211.537C200.881 211.397 202.428 211.579 203.888 212.071C205.348 212.562 206.689 213.352 207.827 214.391C208.965 215.43 209.873 216.695 210.495 218.104C211.116 219.514 211.437 221.038 211.438 222.578C211.437 224.119 211.116 225.642 210.495 227.052C209.873 228.461 208.965 229.726 207.827 230.765C206.689 231.804 205.348 232.594 203.888 233.086C202.428 233.577 200.881 233.759 199.347 233.62L166.922 230.672V214.484Z" fill="#966342"/>
<path d="M170.969 198.297H53.6094C40.1992 198.297 29.3281 209.168 29.3281 222.578C29.3281 235.988 40.1992 246.859 53.6094 246.859H170.969C184.379 246.859 195.25 235.988 195.25 222.578C195.25 209.168 184.379 198.297 170.969 198.297Z" fill="#723024"/>
<path d="M53.6094 246.859C67.0195 246.859 77.8906 235.988 77.8906 222.578C77.8906 209.168 67.0195 198.297 53.6094 198.297C40.1992 198.297 29.3281 209.168 29.3281 222.578C29.3281 235.988 40.1992 246.859 53.6094 246.859Z" fill="#984E3C"/>
<path d="M49.5959 231.405L25.2307 233.62C23.6965 233.759 22.1501 233.577 20.6901 233.085C19.2301 232.594 17.8885 231.804 16.751 230.765C15.6135 229.726 14.7049 228.461 14.0833 227.052C13.4617 225.642 13.1406 224.119 13.1406 222.578C13.1406 221.038 13.4617 219.514 14.0833 218.104C14.705 216.695 15.6136 215.43 16.7512 214.391C17.8887 213.352 19.2303 212.562 20.6904 212.071C22.1505 211.579 23.6969 211.397 25.2312 211.537L49.5959 213.751C51.7985 213.952 53.8467 214.968 55.3381 216.601C56.8295 218.235 57.6564 220.366 57.6562 222.578C57.6564 224.79 56.8295 226.922 55.3381 228.555C53.8467 230.188 51.7985 231.205 49.5959 231.405Z" fill="#AD7D4D"/>
</g>
<defs>
<clipPath id="clip0_68_11">
<rect width="259" height="259" fill="white"/>
</clipPath>
</defs>
</svg>
